<svg xmlns="http://www.w3.org/2000/svg" viewBox="0 0 1200 800" width="1200" height="800">
<defs>
<linearGradient id="bg" x1="0" y1="0" x2="1" y2="1"><stop offset="0" stop-color="#07111F"/><stop offset="1" stop-color="#0B1220"/></linearGradient>
<radialGradient id="g1" cx=".72" cy=".35" r=".6"><stop offset="0" stop-color="#1D4ED8" stop-opacity=".85"/><stop offset="1" stop-color="#1D4ED8" stop-opacity="0"/></radialGradient>
<radialGradient id="g2" cx=".15" cy=".95" r=".5"><stop offset="0" stop-color="#60A5FA" stop-opacity=".35"/><stop offset="1" stop-color="#60A5FA" stop-opacity="0"/></radialGradient>
<pattern id="grid" width="48" height="48" patternUnits="userSpaceOnUse"><path d="M48 0H0V48" fill="none" stroke="#9cc2ff" stroke-opacity=".09"/></pattern>
<linearGradient id="ic" x1="0" y1="0" x2="1" y2="1"><stop offset="0" stop-color="#fff"/><stop offset="1" stop-color="#60A5FA"/></linearGradient>
</defs>
<rect width="1200" height="800" fill="url(#bg)"/>
<rect width="1200" height="800" fill="url(#grid)"/>
<rect width="1200" height="800" fill="url(#g1)"/>
<rect width="1200" height="800" fill="url(#g2)"/>
<path d="M337 428 L539 428 L750 428 L750 268" stroke="#60A5FA" stroke-opacity=".28" stroke-width="2" fill="none"/><circle cx="750" cy="268" r="5" fill="#60A5FA" fill-opacity=".7"/><path d="M6 14 L6 82 L6 -95 L6 -210" stroke="#60A5FA" stroke-opacity=".28" stroke-width="2" fill="none"/><circle cx="6" cy="-210" r="5" fill="#60A5FA" fill-opacity=".7"/><path d="M833 630 L833 759 L833 616 L918 616" stroke="#60A5FA" stroke-opacity=".28" stroke-width="2" fill="none"/><circle cx="918" cy="616" r="5" fill="#60A5FA" fill-opacity=".7"/><path d="M317 758 L232 758 L232 869 L232 724" stroke="#60A5FA" stroke-opacity=".28" stroke-width="2" fill="none"/><circle cx="232" cy="724" r="5" fill="#60A5FA" fill-opacity=".7"/><path d="M76 481 L-23 481 L-121 481 L-121 612" stroke="#60A5FA" stroke-opacity=".28" stroke-width="2" fill="none"/><circle cx="-121" cy="612" r="5" fill="#60A5FA" fill-opacity=".7"/><path d="M794 205 L794 32 L967 32 L1128 32" stroke="#60A5FA" stroke-opacity=".28" stroke-width="2" fill="none"/><circle cx="1128" cy="32" r="5" fill="#60A5FA" fill-opacity=".7"/><path d="M992 395 L992 315 L1072 315 L1072 182" stroke="#60A5FA" stroke-opacity=".28" stroke-width="2" fill="none"/><circle cx="1072" cy="182" r="5" fill="#60A5FA" fill-opacity=".7"/><path d="M652 569 L526 569 L691 569 L691 660" stroke="#60A5FA" stroke-opacity=".28" stroke-width="2" fill="none"/><circle cx="691" cy="660" r="5" fill="#60A5FA" fill-opacity=".7"/><path d="M211 172 L211 13 L211 -134 L211 -246" stroke="#60A5FA" stroke-opacity=".28" stroke-width="2" fill="none"/><circle cx="211" cy="-246" r="5" fill="#60A5FA" fill-opacity=".7"/>
<circle cx="334" cy="759" r="2.5" fill="#fff" fill-opacity="0.25"/><circle cx="709" cy="502" r="2.5" fill="#fff" fill-opacity="0.4"/><circle cx="506" cy="251" r="1.5" fill="#fff" fill-opacity="0.6"/><circle cx="141" cy="449" r="2" fill="#fff" fill-opacity="0.6"/><circle cx="989" cy="58" r="2" fill="#fff" fill-opacity="0.25"/><circle cx="528" cy="674" r="2" fill="#fff" fill-opacity="0.25"/><circle cx="859" cy="254" r="1.5" fill="#fff" fill-opacity="0.4"/><circle cx="142" cy="346" r="2.5" fill="#fff" fill-opacity="0.25"/><circle cx="309" cy="763" r="2.5" fill="#fff" fill-opacity="0.4"/><circle cx="101" cy="258" r="1.5" fill="#fff" fill-opacity="0.6"/><circle cx="1076" cy="746" r="2" fill="#fff" fill-opacity="0.25"/><circle cx="434" cy="374" r="1.5" fill="#fff" fill-opacity="0.4"/><circle cx="872" cy="496" r="2.5" fill="#fff" fill-opacity="0.4"/><circle cx="630" cy="142" r="2.5" fill="#fff" fill-opacity="0.6"/><circle cx="565" cy="142" r="2.5" fill="#fff" fill-opacity="0.25"/><circle cx="783" cy="701" r="1.5" fill="#fff" fill-opacity="0.6"/><circle cx="48" cy="270" r="2.5" fill="#fff" fill-opacity="0.4"/><circle cx="511" cy="598" r="2" fill="#fff" fill-opacity="0.4"/><circle cx="830" cy="769" r="1.5" fill="#fff" fill-opacity="0.25"/><circle cx="290" cy="97" r="2" fill="#fff" fill-opacity="0.25"/><circle cx="382" cy="25" r="2.5" fill="#fff" fill-opacity="0.4"/><circle cx="288" cy="73" r="1.5" fill="#fff" fill-opacity="0.6"/><circle cx="576" cy="129" r="2" fill="#fff" fill-opacity="0.6"/><circle cx="664" cy="405" r="2" fill="#fff" fill-opacity="0.25"/><circle cx="340" cy="185" r="1.5" fill="#fff" fill-opacity="0.4"/><circle cx="412" cy="727" r="2.5" fill="#fff" fill-opacity="0.6"/><circle cx="94" cy="618" r="2.5" fill="#fff" fill-opacity="0.6"/><circle cx="116" cy="8" r="2" fill="#fff" fill-opacity="0.4"/><circle cx="130" cy="407" r="2.5" fill="#fff" fill-opacity="0.25"/><circle cx="477" cy="258" r="2.5" fill="#fff" fill-opacity="0.6"/><circle cx="642" cy="763" r="1.5" fill="#fff" fill-opacity="0.25"/><circle cx="796" cy="159" r="2" fill="#fff" fill-opacity="0.6"/><circle cx="604" cy="515" r="2.5" fill="#fff" fill-opacity="0.4"/><circle cx="1173" cy="100" r="2.5" fill="#fff" fill-opacity="0.6"/><circle cx="122" cy="520" r="2.5" fill="#fff" fill-opacity="0.6"/><circle cx="663" cy="529" r="2" fill="#fff" fill-opacity="0.4"/><circle cx="1076" cy="776" r="2.5" fill="#fff" fill-opacity="0.25"/><circle cx="130" cy="631" r="2" fill="#fff" fill-opacity="0.25"/><circle cx="727" cy="66" r="2" fill="#fff" fill-opacity="0.6"/><circle cx="860" cy="110" r="1.5" fill="#fff" fill-opacity="0.6"/>
<circle cx="744" cy="400" r="223.2" fill="#60A5FA" fill-opacity=".06" stroke="#60A5FA" stroke-opacity=".25"/>
<circle cx="744" cy="400" r="295.2" fill="none" stroke="#fff" stroke-opacity=".07" stroke-dasharray="4 10"/>
<g transform="translate(564.0 220.0) scale(15.0)" fill="none" stroke="url(#ic)" stroke-width=".9" stroke-linecap="round" stroke-linejoin="round"><path d="M7 18h10a4.5 4.5 0 0 0 .6-8.96A6 6 0 0 0 6.1 10.1 4 4 0 0 0 7 18Z"/></g>
</svg>