<svg xmlns="http://www.w3.org/2000/svg" viewBox="0 0 1200 800" width="1200" height="800">
<defs>
<linearGradient id="bg" x1="0" y1="0" x2="1" y2="1"><stop offset="0" stop-color="#07111F"/><stop offset="1" stop-color="#0B1220"/></linearGradient>
<radialGradient id="g1" cx=".72" cy=".35" r=".6"><stop offset="0" stop-color="#2567AD" stop-opacity=".85"/><stop offset="1" stop-color="#2567AD" stop-opacity="0"/></radialGradient>
<radialGradient id="g2" cx=".15" cy=".95" r=".5"><stop offset="0" stop-color="#00A8FF" stop-opacity=".35"/><stop offset="1" stop-color="#00A8FF" stop-opacity="0"/></radialGradient>
<pattern id="grid" width="48" height="48" patternUnits="userSpaceOnUse"><path d="M48 0H0V48" fill="none" stroke="#9cc2ff" stroke-opacity=".09"/></pattern>
<linearGradient id="ic" x1="0" y1="0" x2="1" y2="1"><stop offset="0" stop-color="#fff"/><stop offset="1" stop-color="#00A8FF"/></linearGradient>
</defs>
<rect width="1200" height="800" fill="url(#bg)"/>
<rect width="1200" height="800" fill="url(#grid)"/>
<rect width="1200" height="800" fill="url(#g1)"/>
<rect width="1200" height="800" fill="url(#g2)"/>
<path d="M788 776 L642 776 L825 776 L1027 776" stroke="#00A8FF" stroke-opacity=".28" stroke-width="2" fill="none"/><circle cx="1027" cy="776" r="5" fill="#00A8FF" fill-opacity=".7"/><path d="M733 597 L524 597 L524 441 L524 617" stroke="#00A8FF" stroke-opacity=".28" stroke-width="2" fill="none"/><circle cx="524" cy="617" r="5" fill="#00A8FF" fill-opacity=".7"/><path d="M1090 722 L931 722 L931 547 L1131 547" stroke="#00A8FF" stroke-opacity=".28" stroke-width="2" fill="none"/><circle cx="1131" cy="547" r="5" fill="#00A8FF" fill-opacity=".7"/><path d="M1146 103 L1146 241 L944 241 L944 308" stroke="#00A8FF" stroke-opacity=".28" stroke-width="2" fill="none"/><circle cx="944" cy="308" r="5" fill="#00A8FF" fill-opacity=".7"/><path d="M1123 14 L1123 164 L917 164 L1059 164" stroke="#00A8FF" stroke-opacity=".28" stroke-width="2" fill="none"/><circle cx="1059" cy="164" r="5" fill="#00A8FF" fill-opacity=".7"/><path d="M666 720 L530 720 L530 558 L430 558" stroke="#00A8FF" stroke-opacity=".28" stroke-width="2" fill="none"/><circle cx="430" cy="558" r="5" fill="#00A8FF" fill-opacity=".7"/><path d="M655 520 L762 520 L762 670 L762 834" stroke="#00A8FF" stroke-opacity=".28" stroke-width="2" fill="none"/><circle cx="762" cy="834" r="5" fill="#00A8FF" fill-opacity=".7"/><path d="M1106 208 L1299 208 L1299 308 L1426 308" stroke="#00A8FF" stroke-opacity=".28" stroke-width="2" fill="none"/><circle cx="1426" cy="308" r="5" fill="#00A8FF" fill-opacity=".7"/><path d="M387 191 L387 311 L387 139 L387 -28" stroke="#00A8FF" stroke-opacity=".28" stroke-width="2" fill="none"/><circle cx="387" cy="-28" r="5" fill="#00A8FF" fill-opacity=".7"/>
<circle cx="164" cy="716" r="2.5" fill="#fff" fill-opacity="0.6"/><circle cx="801" cy="722" r="2.5" fill="#fff" fill-opacity="0.4"/><circle cx="1068" cy="241" r="1.5" fill="#fff" fill-opacity="0.6"/><circle cx="858" cy="593" r="2" fill="#fff" fill-opacity="0.4"/><circle cx="1008" cy="676" r="2.5" fill="#fff" fill-opacity="0.6"/><circle cx="731" cy="84" r="2" fill="#fff" fill-opacity="0.6"/><circle cx="236" cy="498" r="2.5" fill="#fff" fill-opacity="0.6"/><circle cx="686" cy="194" r="1.5" fill="#fff" fill-opacity="0.25"/><circle cx="555" cy="119" r="2.5" fill="#fff" fill-opacity="0.25"/><circle cx="761" cy="174" r="2" fill="#fff" fill-opacity="0.4"/><circle cx="127" cy="103" r="1.5" fill="#fff" fill-opacity="0.6"/><circle cx="448" cy="46" r="2.5" fill="#fff" fill-opacity="0.6"/><circle cx="1094" cy="616" r="2.5" fill="#fff" fill-opacity="0.25"/><circle cx="54" cy="127" r="2.5" fill="#fff" fill-opacity="0.25"/><circle cx="1179" cy="122" r="2" fill="#fff" fill-opacity="0.25"/><circle cx="758" cy="118" r="1.5" fill="#fff" fill-opacity="0.6"/><circle cx="44" cy="199" r="1.5" fill="#fff" fill-opacity="0.6"/><circle cx="253" cy="490" r="1.5" fill="#fff" fill-opacity="0.6"/><circle cx="125" cy="695" r="1.5" fill="#fff" fill-opacity="0.6"/><circle cx="871" cy="635" r="1.5" fill="#fff" fill-opacity="0.4"/><circle cx="143" cy="226" r="1.5" fill="#fff" fill-opacity="0.6"/><circle cx="616" cy="358" r="2" fill="#fff" fill-opacity="0.25"/><circle cx="125" cy="515" r="2" fill="#fff" fill-opacity="0.25"/><circle cx="206" cy="716" r="2" fill="#fff" fill-opacity="0.25"/><circle cx="532" cy="367" r="2.5" fill="#fff" fill-opacity="0.4"/><circle cx="1166" cy="173" r="2.5" fill="#fff" fill-opacity="0.6"/><circle cx="416" cy="785" r="1.5" fill="#fff" fill-opacity="0.6"/><circle cx="324" cy="165" r="2" fill="#fff" fill-opacity="0.6"/><circle cx="513" cy="120" r="2.5" fill="#fff" fill-opacity="0.4"/><circle cx="358" cy="13" r="2" fill="#fff" fill-opacity="0.6"/><circle cx="839" cy="582" r="2.5" fill="#fff" fill-opacity="0.4"/><circle cx="731" cy="397" r="2.5" fill="#fff" fill-opacity="0.4"/><circle cx="314" cy="574" r="2.5" fill="#fff" fill-opacity="0.25"/><circle cx="937" cy="759" r="1.5" fill="#fff" fill-opacity="0.4"/><circle cx="93" cy="557" r="2" fill="#fff" fill-opacity="0.25"/><circle cx="491" cy="780" r="2" fill="#fff" fill-opacity="0.4"/><circle cx="589" cy="689" r="2" fill="#fff" fill-opacity="0.6"/><circle cx="271" cy="732" r="2" fill="#fff" fill-opacity="0.4"/><circle cx="848" cy="666" r="1.5" fill="#fff" fill-opacity="0.25"/><circle cx="393" cy="715" r="2" fill="#fff" fill-opacity="0.25"/>
<circle cx="744" cy="400" r="223.2" fill="#00A8FF" fill-opacity=".06" stroke="#00A8FF" stroke-opacity=".25"/>
<circle cx="744" cy="400" r="295.2" fill="none" stroke="#fff" stroke-opacity=".07" stroke-dasharray="4 10"/>
<g transform="translate(564.0 220.0) scale(15.0)" fill="none" stroke="url(#ic)" stroke-width=".9" stroke-linecap="round" stroke-linejoin="round"><rect x="9" y="2" width="6" height="5" rx="1"/><rect x="2" y="17" width="6" height="5" rx="1"/><rect x="16" y="17" width="6" height="5" rx="1"/><path d="M12 7v4M5 17v-3h14v3M12 11v3"/></g>
</svg>