<svg xmlns="http://www.w3.org/2000/svg" viewBox="0 0 1200 800" width="1200" height="800">
<defs>
<linearGradient id="bg" x1="0" y1="0" x2="1" y2="1"><stop offset="0" stop-color="#07111F"/><stop offset="1" stop-color="#0B1220"/></linearGradient>
<radialGradient id="g1" cx=".72" cy=".35" r=".6"><stop offset="0" stop-color="#2567AD" stop-opacity=".85"/><stop offset="1" stop-color="#2567AD" stop-opacity="0"/></radialGradient>
<radialGradient id="g2" cx=".15" cy=".95" r=".5"><stop offset="0" stop-color="#00A8FF" stop-opacity=".35"/><stop offset="1" stop-color="#00A8FF" stop-opacity="0"/></radialGradient>
<pattern id="grid" width="48" height="48" patternUnits="userSpaceOnUse"><path d="M48 0H0V48" fill="none" stroke="#9cc2ff" stroke-opacity=".09"/></pattern>
<linearGradient id="ic" x1="0" y1="0" x2="1" y2="1"><stop offset="0" stop-color="#fff"/><stop offset="1" stop-color="#00A8FF"/></linearGradient>
</defs>
<rect width="1200" height="800" fill="url(#bg)"/>
<rect width="1200" height="800" fill="url(#grid)"/>
<rect width="1200" height="800" fill="url(#g1)"/>
<rect width="1200" height="800" fill="url(#g2)"/>
<path d="M740 480 L740 569 L740 738 L880 738" stroke="#00A8FF" stroke-opacity=".28" stroke-width="2" fill="none"/><circle cx="880" cy="738" r="5" fill="#00A8FF" fill-opacity=".7"/><path d="M455 10 L455 155 L455 217 L540 217" stroke="#00A8FF" stroke-opacity=".28" stroke-width="2" fill="none"/><circle cx="540" cy="217" r="5" fill="#00A8FF" fill-opacity=".7"/><path d="M315 620 L117 620 L117 708 L263 708" stroke="#00A8FF" stroke-opacity=".28" stroke-width="2" fill="none"/><circle cx="263" cy="708" r="5" fill="#00A8FF" fill-opacity=".7"/><path d="M860 88 L860 214 L951 214 L951 48" stroke="#00A8FF" stroke-opacity=".28" stroke-width="2" fill="none"/><circle cx="951" cy="48" r="5" fill="#00A8FF" fill-opacity=".7"/><path d="M12 535 L12 614 L12 732 L12 583" stroke="#00A8FF" stroke-opacity=".28" stroke-width="2" fill="none"/><circle cx="12" cy="583" r="5" fill="#00A8FF" fill-opacity=".7"/><path d="M987 745 L1192 745 L1192 894 L1292 894" stroke="#00A8FF" stroke-opacity=".28" stroke-width="2" fill="none"/><circle cx="1292" cy="894" r="5" fill="#00A8FF" fill-opacity=".7"/><path d="M1022 670 L1022 520 L1022 694 L1022 550" stroke="#00A8FF" stroke-opacity=".28" stroke-width="2" fill="none"/><circle cx="1022" cy="550" r="5" fill="#00A8FF" fill-opacity=".7"/><path d="M819 618 L819 529 L819 400 L819 290" stroke="#00A8FF" stroke-opacity=".28" stroke-width="2" fill="none"/><circle cx="819" cy="290" r="5" fill="#00A8FF" fill-opacity=".7"/><path d="M95 116 L-85 116 L-85 206 L-85 116" stroke="#00A8FF" stroke-opacity=".28" stroke-width="2" fill="none"/><circle cx="-85" cy="116" r="5" fill="#00A8FF" fill-opacity=".7"/>
<circle cx="1076" cy="250" r="1.5" fill="#fff" fill-opacity="0.25"/><circle cx="301" cy="274" r="2" fill="#fff" fill-opacity="0.4"/><circle cx="79" cy="414" r="2" fill="#fff" fill-opacity="0.6"/><circle cx="955" cy="471" r="2" fill="#fff" fill-opacity="0.25"/><circle cx="121" cy="31" r="2.5" fill="#fff" fill-opacity="0.25"/><circle cx="875" cy="683" r="2" fill="#fff" fill-opacity="0.6"/><circle cx="786" cy="105" r="1.5" fill="#fff" fill-opacity="0.25"/><circle cx="851" cy="647" r="1.5" fill="#fff" fill-opacity="0.4"/><circle cx="237" cy="466" r="2" fill="#fff" fill-opacity="0.25"/><circle cx="818" cy="243" r="1.5" fill="#fff" fill-opacity="0.25"/><circle cx="826" cy="443" r="2.5" fill="#fff" fill-opacity="0.25"/><circle cx="810" cy="189" r="2" fill="#fff" fill-opacity="0.6"/><circle cx="1015" cy="178" r="2" fill="#fff" fill-opacity="0.25"/><circle cx="873" cy="22" r="2" fill="#fff" fill-opacity="0.4"/><circle cx="1172" cy="302" r="1.5" fill="#fff" fill-opacity="0.25"/><circle cx="624" cy="754" r="2" fill="#fff" fill-opacity="0.25"/><circle cx="1094" cy="659" r="2" fill="#fff" fill-opacity="0.25"/><circle cx="905" cy="514" r="1.5" fill="#fff" fill-opacity="0.4"/><circle cx="1133" cy="81" r="2.5" fill="#fff" fill-opacity="0.6"/><circle cx="219" cy="741" r="2.5" fill="#fff" fill-opacity="0.4"/><circle cx="119" cy="473" r="1.5" fill="#fff" fill-opacity="0.4"/><circle cx="107" cy="525" r="2" fill="#fff" fill-opacity="0.6"/><circle cx="351" cy="102" r="2.5" fill="#fff" fill-opacity="0.4"/><circle cx="824" cy="289" r="2" fill="#fff" fill-opacity="0.25"/><circle cx="456" cy="195" r="2" fill="#fff" fill-opacity="0.25"/><circle cx="26" cy="646" r="1.5" fill="#fff" fill-opacity="0.25"/><circle cx="682" cy="404" r="2.5" fill="#fff" fill-opacity="0.6"/><circle cx="416" cy="56" r="2" fill="#fff" fill-opacity="0.6"/><circle cx="46" cy="395" r="2.5" fill="#fff" fill-opacity="0.25"/><circle cx="301" cy="682" r="2.5" fill="#fff" fill-opacity="0.6"/><circle cx="455" cy="211" r="2.5" fill="#fff" fill-opacity="0.6"/><circle cx="1104" cy="678" r="2.5" fill="#fff" fill-opacity="0.6"/><circle cx="548" cy="526" r="1.5" fill="#fff" fill-opacity="0.6"/><circle cx="1045" cy="223" r="2" fill="#fff" fill-opacity="0.6"/><circle cx="985" cy="357" r="1.5" fill="#fff" fill-opacity="0.6"/><circle cx="943" cy="766" r="2.5" fill="#fff" fill-opacity="0.25"/><circle cx="222" cy="194" r="1.5" fill="#fff" fill-opacity="0.25"/><circle cx="765" cy="747" r="2" fill="#fff" fill-opacity="0.6"/><circle cx="198" cy="159" r="1.5" fill="#fff" fill-opacity="0.25"/><circle cx="240" cy="738" r="1.5" fill="#fff" fill-opacity="0.4"/>
<circle cx="744" cy="400" r="223.2" fill="#00A8FF" fill-opacity=".06" stroke="#00A8FF" stroke-opacity=".25"/>
<circle cx="744" cy="400" r="295.2" fill="none" stroke="#fff" stroke-opacity=".07" stroke-dasharray="4 10"/>
<g transform="translate(564.0 220.0) scale(15.0)" fill="none" stroke="url(#ic)" stroke-width=".9" stroke-linecap="round" stroke-linejoin="round"><path d="M12 2v4M8 6h8M5 10h14M4 21h16M6 10v8M10 10v8M14 10v8M18 10v8"/></g>
</svg>