<svg xmlns="http://www.w3.org/2000/svg" viewBox="0 0 1200 800" width="1200" height="800">
<defs>
<linearGradient id="bg" x1="0" y1="0" x2="1" y2="1"><stop offset="0" stop-color="#07111F"/><stop offset="1" stop-color="#0B1220"/></linearGradient>
<radialGradient id="g1" cx=".72" cy=".35" r=".6"><stop offset="0" stop-color="#1E3A8A" stop-opacity=".85"/><stop offset="1" stop-color="#1E3A8A" stop-opacity="0"/></radialGradient>
<radialGradient id="g2" cx=".15" cy=".95" r=".5"><stop offset="0" stop-color="#22D3EE" stop-opacity=".35"/><stop offset="1" stop-color="#22D3EE" stop-opacity="0"/></radialGradient>
<pattern id="grid" width="48" height="48" patternUnits="userSpaceOnUse"><path d="M48 0H0V48" fill="none" stroke="#9cc2ff" stroke-opacity=".09"/></pattern>
<linearGradient id="ic" x1="0" y1="0" x2="1" y2="1"><stop offset="0" stop-color="#fff"/><stop offset="1" stop-color="#22D3EE"/></linearGradient>
</defs>
<rect width="1200" height="800" fill="url(#bg)"/>
<rect width="1200" height="800" fill="url(#grid)"/>
<rect width="1200" height="800" fill="url(#g1)"/>
<rect width="1200" height="800" fill="url(#g2)"/>
<path d="M1069 424 L1223 424 L1223 498 L1045 498" stroke="#22D3EE" stroke-opacity=".28" stroke-width="2" fill="none"/><circle cx="1045" cy="498" r="5" fill="#22D3EE" fill-opacity=".7"/><path d="M859 258 L1041 258 L1041 181 L923 181" stroke="#22D3EE" stroke-opacity=".28" stroke-width="2" fill="none"/><circle cx="923" cy="181" r="5" fill="#22D3EE" fill-opacity=".7"/><path d="M1091 572 L927 572 L768 572 L768 713" stroke="#22D3EE" stroke-opacity=".28" stroke-width="2" fill="none"/><circle cx="768" cy="713" r="5" fill="#22D3EE" fill-opacity=".7"/><path d="M290 698 L374 698 L374 524 L466 524" stroke="#22D3EE" stroke-opacity=".28" stroke-width="2" fill="none"/><circle cx="466" cy="524" r="5" fill="#22D3EE" fill-opacity=".7"/><path d="M977 383 L794 383 L794 292 L888 292" stroke="#22D3EE" stroke-opacity=".28" stroke-width="2" fill="none"/><circle cx="888" cy="292" r="5" fill="#22D3EE" fill-opacity=".7"/><path d="M547 65 L331 65 L187 65 L348 65" stroke="#22D3EE" stroke-opacity=".28" stroke-width="2" fill="none"/><circle cx="348" cy="65" r="5" fill="#22D3EE" fill-opacity=".7"/><path d="M349 340 L349 442 L349 504 L349 624" stroke="#22D3EE" stroke-opacity=".28" stroke-width="2" fill="none"/><circle cx="349" cy="624" r="5" fill="#22D3EE" fill-opacity=".7"/><path d="M110 746 L110 815 L195 815 L12 815" stroke="#22D3EE" stroke-opacity=".28" stroke-width="2" fill="none"/><circle cx="12" cy="815" r="5" fill="#22D3EE" fill-opacity=".7"/><path d="M993 749 L1119 749 L1119 828 L1027 828" stroke="#22D3EE" stroke-opacity=".28" stroke-width="2" fill="none"/><circle cx="1027" cy="828" r="5" fill="#22D3EE" fill-opacity=".7"/>
<circle cx="1099" cy="312" r="2" fill="#fff" fill-opacity="0.4"/><circle cx="101" cy="165" r="2" fill="#fff" fill-opacity="0.25"/><circle cx="638" cy="256" r="2.5" fill="#fff" fill-opacity="0.4"/><circle cx="983" cy="76" r="2.5" fill="#fff" fill-opacity="0.25"/><circle cx="1112" cy="651" r="1.5" fill="#fff" fill-opacity="0.25"/><circle cx="1090" cy="271" r="2.5" fill="#fff" fill-opacity="0.25"/><circle cx="604" cy="50" r="2.5" fill="#fff" fill-opacity="0.4"/><circle cx="1200" cy="402" r="2" fill="#fff" fill-opacity="0.25"/><circle cx="1134" cy="417" r="2.5" fill="#fff" fill-opacity="0.6"/><circle cx="911" cy="79" r="2" fill="#fff" fill-opacity="0.25"/><circle cx="469" cy="494" r="2" fill="#fff" fill-opacity="0.25"/><circle cx="745" cy="612" r="1.5" fill="#fff" fill-opacity="0.6"/><circle cx="1183" cy="581" r="2.5" fill="#fff" fill-opacity="0.4"/><circle cx="109" cy="336" r="2.5" fill="#fff" fill-opacity="0.25"/><circle cx="1138" cy="236" r="2.5" fill="#fff" fill-opacity="0.4"/><circle cx="753" cy="176" r="1.5" fill="#fff" fill-opacity="0.4"/><circle cx="888" cy="364" r="2" fill="#fff" fill-opacity="0.6"/><circle cx="191" cy="531" r="1.5" fill="#fff" fill-opacity="0.6"/><circle cx="21" cy="196" r="2.5" fill="#fff" fill-opacity="0.6"/><circle cx="1133" cy="783" r="1.5" fill="#fff" fill-opacity="0.4"/><circle cx="949" cy="456" r="2.5" fill="#fff" fill-opacity="0.25"/><circle cx="1098" cy="562" r="2" fill="#fff" fill-opacity="0.4"/><circle cx="24" cy="301" r="2" fill="#fff" fill-opacity="0.25"/><circle cx="16" cy="478" r="2" fill="#fff" fill-opacity="0.4"/><circle cx="432" cy="53" r="2" fill="#fff" fill-opacity="0.25"/><circle cx="1060" cy="683" r="2.5" fill="#fff" fill-opacity="0.25"/><circle cx="56" cy="115" r="2" fill="#fff" fill-opacity="0.6"/><circle cx="617" cy="626" r="1.5" fill="#fff" fill-opacity="0.25"/><circle cx="53" cy="466" r="2.5" fill="#fff" fill-opacity="0.25"/><circle cx="61" cy="409" r="1.5" fill="#fff" fill-opacity="0.4"/><circle cx="119" cy="756" r="2.5" fill="#fff" fill-opacity="0.25"/><circle cx="385" cy="551" r="2" fill="#fff" fill-opacity="0.4"/><circle cx="730" cy="355" r="2.5" fill="#fff" fill-opacity="0.6"/><circle cx="853" cy="415" r="1.5" fill="#fff" fill-opacity="0.6"/><circle cx="694" cy="82" r="2.5" fill="#fff" fill-opacity="0.25"/><circle cx="583" cy="333" r="2" fill="#fff" fill-opacity="0.25"/><circle cx="684" cy="130" r="2.5" fill="#fff" fill-opacity="0.25"/><circle cx="1012" cy="290" r="2" fill="#fff" fill-opacity="0.25"/><circle cx="522" cy="255" r="1.5" fill="#fff" fill-opacity="0.6"/><circle cx="861" cy="317" r="2.5" fill="#fff" fill-opacity="0.25"/>
<circle cx="744" cy="400" r="223.2" fill="#22D3EE" fill-opacity=".06" stroke="#22D3EE" stroke-opacity=".25"/>
<circle cx="744" cy="400" r="295.2" fill="none" stroke="#fff" stroke-opacity=".07" stroke-dasharray="4 10"/>
<g transform="translate(564.0 220.0) scale(15.0)" fill="none" stroke="url(#ic)" stroke-width=".9" stroke-linecap="round" stroke-linejoin="round"><path d="M3 4h2l2.4 11.2a1 1 0 0 0 1 .8h9.7a1 1 0 0 0 1-.76L21 8H6.2"/></g>
</svg>