<svg xmlns="http://www.w3.org/2000/svg" viewBox="0 0 800 800" width="800" height="800">
<defs>
<radialGradient id="bg" cx=".5" cy=".42" r=".75"><stop offset="0" stop-color="#FFFFFF"/><stop offset="1" stop-color="#E9F0F8"/></radialGradient>
<linearGradient id="metal" x1="0" y1="0" x2="0" y2="1"><stop offset="0" stop-color="#3B4656"/><stop offset=".5" stop-color="#1F2733"/><stop offset="1" stop-color="#121821"/></linearGradient>
<linearGradient id="face" x1="0" y1="0" x2="0" y2="1"><stop offset="0" stop-color="#2A3442"/><stop offset="1" stop-color="#161D27"/></linearGradient>
<linearGradient id="silver" x1="0" y1="0" x2="1" y2="1"><stop offset="0" stop-color="#F3F6FA"/><stop offset=".5" stop-color="#C9D3DF"/><stop offset="1" stop-color="#9AA7B6"/></linearGradient>
<linearGradient id="blue" x1="0" y1="0" x2="1" y2="0"><stop offset="0" stop-color="#2567AD"/><stop offset="1" stop-color="#00A8FF"/></linearGradient>
<filter id="sh" x="-20%" y="-20%" width="140%" height="160%"><feGaussianBlur in="SourceAlpha" stdDeviation="14"/><feOffset dy="18"/><feComponentTransfer><feFuncA type="linear" slope=".28"/></feComponentTransfer><feMerge><feMergeNode/><feMergeNode in="SourceGraphic"/></feMerge></filter>
</defs>
<rect width="800" height="800" fill="url(#bg)"/>
<ellipse cx="400" cy="640" rx="290" ry="26" fill="#0B1220" opacity=".08"/>
<g filter="url(#sh)"><path d="M120 280 L680 280 L700 300 L100 300 Z" fill="#4A5566"/>
<rect x="100" y="300" width="600" height="180" rx="10" fill="url(#metal)"/>
<rect x="116" y="316" width="44" height="148" rx="5" fill="#121821"/><rect x="124" y="330" width="28" height="18" rx="2" fill="url(#blue)"/>
<rect x="170" y="320" width="106" height="66" rx="5" fill="#1A222D" stroke="#465364"/><circle cx="186" cy="353" r="3" fill="#22C55E"/><rect x='200' y='334' width='64' height='3' fill='#3A4554'/><rect x='200' y='344' width='64' height='3' fill='#3A4554'/><rect x='200' y='354' width='64' height='3' fill='#3A4554'/><rect x='200' y='364' width='64' height='3' fill='#3A4554'/><rect x="286" y="320" width="106" height="66" rx="5" fill="#1A222D" stroke="#465364"/><circle cx="302" cy="353" r="3" fill="#22C55E"/><rect x='316' y='334' width='64' height='3' fill='#3A4554'/><rect x='316' y='344' width='64' height='3' fill='#3A4554'/><rect x='316' y='354' width='64' height='3' fill='#3A4554'/><rect x='316' y='364' width='64' height='3' fill='#3A4554'/><rect x="402" y="320" width="106" height="66" rx="5" fill="#1A222D" stroke="#465364"/><circle cx="418" cy="353" r="3" fill="#22C55E"/><rect x='432' y='334' width='64' height='3' fill='#3A4554'/><rect x='432' y='344' width='64' height='3' fill='#3A4554'/><rect x='432' y='354' width='64' height='3' fill='#3A4554'/><rect x='432' y='364' width='64' height='3' fill='#3A4554'/><rect x="518" y="320" width="106" height="66" rx="5" fill="#1A222D" stroke="#465364"/><circle cx="534" cy="353" r="3" fill="#22C55E"/><rect x='548' y='334' width='64' height='3' fill='#3A4554'/><rect x='548' y='344' width='64' height='3' fill='#3A4554'/><rect x='548' y='354' width='64' height='3' fill='#3A4554'/><rect x='548' y='364' width='64' height='3' fill='#3A4554'/><rect x="170" y="396" width="106" height="66" rx="5" fill="#1A222D" stroke="#465364"/><circle cx="186" cy="429" r="3" fill="#22C55E"/><rect x='200' y='410' width='64' height='3' fill='#3A4554'/><rect x='200' y='420' width='64' height='3' fill='#3A4554'/><rect x='200' y='430' width='64' height='3' fill='#3A4554'/><rect x='200' y='440' width='64' height='3' fill='#3A4554'/><rect x="286" y="396" width="106" height="66" rx="5" fill="#1A222D" stroke="#465364"/><circle cx="302" cy="429" r="3" fill="#22C55E"/><rect x='316' y='410' width='64' height='3' fill='#3A4554'/><rect x='316' y='420' width='64' height='3' fill='#3A4554'/><rect x='316' y='430' width='64' height='3' fill='#3A4554'/><rect x='316' y='440' width='64' height='3' fill='#3A4554'/><rect x="402" y="396" width="106" height="66" rx="5" fill="#1A222D" stroke="#465364"/><circle cx="418" cy="429" r="3" fill="#22C55E"/><rect x='432' y='410' width='64' height='3' fill='#3A4554'/><rect x='432' y='420' width='64' height='3' fill='#3A4554'/><rect x='432' y='430' width='64' height='3' fill='#3A4554'/><rect x='432' y='440' width='64' height='3' fill='#3A4554'/><rect x="518" y="396" width="106" height="66" rx="5" fill="#1A222D" stroke="#465364"/><circle cx="534" cy="429" r="3" fill="#22C55E"/><rect x='548' y='410' width='64' height='3' fill='#3A4554'/><rect x='548' y='420' width='64' height='3' fill='#3A4554'/><rect x='548' y='430' width='64' height='3' fill='#3A4554'/><rect x='548' y='440' width='64' height='3' fill='#3A4554'/><rect x="100" y="476" width="600" height="5" fill="url(#blue)" opacity=".85"/></g>
<text x="400" y="740" text-anchor="middle" font-family="Inter,Segoe UI,Arial,sans-serif" font-size="22" font-weight="600" fill="#7A8AA0" letter-spacing="3">8-BAY BACKUP APPLIANCE</text>
</svg>